<svg id="Layer_1" data-name="Layer 1" xmlns="http://www.w3.org/2000/svg" viewBox="0 0 512 512"><defs><style>.cls-1{fill:#d9e4e8;}.cls-2{fill:#141f38;}.cls-3{fill:#ffb24d;fill-rule:evenodd;}.cls-4{opacity:0.14;}.cls-5{fill:#17292d;}</style></defs><title>shield-check-filled</title><path class="cls-1" d="M234.71,21C187.85,65.87,120.7,75.51,82,77c-17.21.68-30.78,15.52-30.78,33.63V238.24c0,131.7,115.89,217.68,173.33,252.2a60.82,60.82,0,0,0,63,0c57.44-34.52,173.33-120.5,173.33-252.2V110.67c0-18.11-13.58-33-30.78-33.63C391.3,75.51,324.15,65.87,277.29,21,265.83,10,246.17,10,234.71,21Z"/><path class="cls-2" d="M256,512a73.79,73.79,0,0,1-38.09-10.6c-54-32.44-179.54-123-179.54-263.17V110.67c0-25.08,18.92-45.47,43.08-46.43,34.89-1.38,100-10,144.4-52.51h0c16.34-15.65,44-15.65,60.3,0,44.36,42.48,109.51,51.13,144.4,52.51,24.16,1,43.08,21.35,43.08,46.43V238.24c0,140.15-125.56,230.73-179.54,263.17A73.85,73.85,0,0,1,256,512Zm0-486.45a18,18,0,0,0-12.43,4.68h0C193.11,78.56,121,88.31,82.46,89.83,72.09,90.24,64,99.4,64,110.67V238.24c0,127.07,116.87,211,167.13,241.23a48.25,48.25,0,0,0,49.81,0C331.16,449.27,448,365.31,448,238.24V110.67c0-11.28-8.12-20.43-18.49-20.85C391,88.31,318.89,78.56,268.43,30.23A18,18,0,0,0,256,25.55Z"/><path class="cls-3" d="M256,345.6A89.61,89.61,0,1,1,345.61,256,89.72,89.72,0,0,1,256,345.6Z"/><path class="cls-2" d="M256,179.18A76.81,76.81,0,1,1,179.19,256,76.9,76.9,0,0,1,256,179.18m0-25.6A102.42,102.42,0,1,0,358.42,256,102.42,102.42,0,0,0,256,153.57Z"/><path class="cls-2" d="M250.88,294.4a12.8,12.8,0,0,1-8.2-3L222.2,274.36a12.8,12.8,0,1,1,16.39-19.67l9,7.5,23-38.39a12.8,12.8,0,1,1,22,13.18l-30.72,51.21a12.8,12.8,0,0,1-8.84,6A12.34,12.34,0,0,1,250.88,294.4Z"/><g class="cls-4"><path class="cls-5" d="M430.55,64.25c-6.12-.24-13.22-.73-20.93-1.56V238.27c0,140.13-125.56,230.72-179.54,263.17-2,1.18-4,2.12-6.06,3.1a73.07,73.07,0,0,0,70.07-3.13c54-32.44,179.54-123,179.54-263.17V110.67C473.63,85.6,454.71,65.2,430.55,64.25Z"/></g></svg>